<svg width="111" height="31" viewBox="0 0 111 31" fill="none" xmlns="http://www.w3.org/2000/svg">
<path d="M15.352 24V11.016H15.256L9.59202 24H8.08002L2.44002 11.016H2.34402V24H0.400024V7.488H3.18402L8.82403 20.328H8.94403L14.584 7.488H17.368V24H15.352Z" fill="white"/>
<path d="M25.1255 24.192C23.7175 24.192 22.6935 23.936 22.0535 23.424C21.4135 22.896 21.0935 21.968 21.0935 20.64C21.0935 19.696 21.2055 18.96 21.4295 18.432C21.6535 17.904 22.0295 17.52 22.5575 17.28C23.1015 17.04 23.8615 16.92 24.8375 16.92C25.3015 16.92 26.8295 16.96 29.4215 17.04V16.32C29.4215 15.36 29.3255 14.68 29.1335 14.28C28.9575 13.88 28.6215 13.624 28.1255 13.512C27.6455 13.4 26.8215 13.344 25.6535 13.344C25.1415 13.344 24.4935 13.376 23.7095 13.44C22.9415 13.488 22.3415 13.544 21.9095 13.608V11.904C23.1735 11.68 24.6535 11.568 26.3495 11.568C27.7895 11.568 28.8615 11.72 29.5655 12.024C30.2855 12.312 30.7655 12.792 31.0055 13.464C31.2455 14.12 31.3655 15.08 31.3655 16.344V24H29.6135L29.5175 22.296H29.3735C29.0375 23.064 28.4935 23.576 27.7415 23.832C27.0055 24.072 26.1335 24.192 25.1255 24.192ZM25.8695 22.44C26.6695 22.44 27.3175 22.368 27.8135 22.224C28.3255 22.08 28.6935 21.8 28.9175 21.384C29.2535 20.808 29.4215 20.008 29.4215 18.984V18.432H25.3415C24.6695 18.432 24.1735 18.48 23.8535 18.576C23.5495 18.672 23.3335 18.864 23.2055 19.152C23.0775 19.424 23.0135 19.856 23.0135 20.448C23.0135 21.024 23.0855 21.448 23.2295 21.72C23.3735 21.992 23.6375 22.184 24.0215 22.296C24.4215 22.392 25.0375 22.44 25.8695 22.44Z" fill="white"/>
<path d="M35.549 11.76H37.277L37.373 14.088H37.517C37.805 13.128 38.285 12.472 38.957 12.12C39.629 11.752 40.509 11.568 41.597 11.568V13.656C40.493 13.656 39.645 13.824 39.053 14.16C38.461 14.496 38.053 15.016 37.829 15.72C37.605 16.408 37.493 17.344 37.493 18.528V24H35.549V11.76Z" fill="white"/>
<path d="M48.4175 24.192C47.7615 24.192 47.0175 24.16 46.1855 24.096C45.3535 24.032 44.6175 23.96 43.9775 23.88V22.152C45.5615 22.328 47.0095 22.416 48.3215 22.416C49.1375 22.416 49.7375 22.36 50.1215 22.248C50.5055 22.136 50.7535 21.96 50.8655 21.72C50.9935 21.464 51.0575 21.088 51.0575 20.592C51.0575 20.096 51.0095 19.744 50.9135 19.536C50.8335 19.312 50.6975 19.16 50.5055 19.08C50.3135 19 49.9775 18.936 49.4975 18.888L46.3055 18.528C45.5695 18.448 45.0015 18.28 44.6015 18.024C44.2175 17.768 43.9535 17.416 43.8095 16.968C43.6655 16.52 43.5935 15.92 43.5935 15.168C43.5935 14.128 43.7775 13.352 44.1455 12.84C44.5295 12.312 45.0495 11.968 45.7055 11.808C46.3775 11.648 47.2735 11.568 48.3935 11.568C49.0175 11.568 49.6895 11.6 50.4095 11.664C51.1295 11.728 51.7375 11.808 52.2335 11.904V13.632C50.9855 13.44 49.6975 13.344 48.3695 13.344C47.6335 13.344 47.0735 13.384 46.6895 13.464C46.3055 13.528 46.0095 13.688 45.8015 13.944C45.5935 14.184 45.4895 14.568 45.4895 15.096C45.4895 15.56 45.5295 15.896 45.6095 16.104C45.6895 16.312 45.8255 16.456 46.0175 16.536C46.2095 16.616 46.5295 16.68 46.9775 16.728L50.2895 17.112C50.9935 17.192 51.5215 17.328 51.8735 17.52C52.2415 17.696 52.5055 18.016 52.6655 18.48C52.8415 18.944 52.9295 19.632 52.9295 20.544C52.9295 21.552 52.7615 22.32 52.4255 22.848C52.1055 23.376 51.6255 23.736 50.9855 23.928C50.3615 24.104 49.5055 24.192 48.4175 24.192Z" fill="white"/>
<path d="M78.1489 24.192C76.7409 24.192 75.7169 23.936 75.0769 23.424C74.4369 22.896 74.1169 21.968 74.1169 20.64C74.1169 19.696 74.2289 18.96 74.4529 18.432C74.6769 17.904 75.0529 17.52 75.5809 17.28C76.1249 17.04 76.8849 16.92 77.8609 16.92C78.3249 16.92 79.8529 16.96 82.4449 17.04V16.32C82.4449 15.36 82.3489 14.68 82.1569 14.28C81.9809 13.88 81.6449 13.624 81.1489 13.512C80.6689 13.4 79.8449 13.344 78.6769 13.344C78.1649 13.344 77.5169 13.376 76.7329 13.44C75.9649 13.488 75.3649 13.544 74.9329 13.608V11.904C76.1969 11.68 77.6769 11.568 79.3729 11.568C80.8129 11.568 81.8849 11.72 82.5889 12.024C83.3089 12.312 83.7889 12.792 84.0289 13.464C84.2689 14.12 84.3889 15.08 84.3889 16.344V24H82.6369L82.5409 22.296H82.3969C82.0609 23.064 81.5169 23.576 80.7649 23.832C80.0289 24.072 79.1569 24.192 78.1489 24.192ZM78.8929 22.44C79.6929 22.44 80.3409 22.368 80.8369 22.224C81.3489 22.08 81.7169 21.8 81.9409 21.384C82.2769 20.808 82.4449 20.008 82.4449 18.984V18.432H78.3649C77.6929 18.432 77.1969 18.48 76.8769 18.576C76.5729 18.672 76.3569 18.864 76.2289 19.152C76.1009 19.424 76.0369 19.856 76.0369 20.448C76.0369 21.024 76.1089 21.448 76.2529 21.72C76.3969 21.992 76.6609 22.184 77.0449 22.296C77.4449 22.392 78.0609 22.44 78.8929 22.44Z" fill="white"/>
<path d="M92.6284 24.192C91.9724 24.192 91.2284 24.16 90.3964 24.096C89.5644 24.032 88.8284 23.96 88.1884 23.88V22.152C89.7724 22.328 91.2204 22.416 92.5324 22.416C93.3484 22.416 93.9484 22.36 94.3324 22.248C94.7164 22.136 94.9644 21.96 95.0764 21.72C95.2044 21.464 95.2684 21.088 95.2684 20.592C95.2684 20.096 95.2204 19.744 95.1244 19.536C95.0444 19.312 94.9084 19.16 94.7164 19.08C94.5244 19 94.1884 18.936 93.7084 18.888L90.5164 18.528C89.7804 18.448 89.2124 18.28 88.8124 18.024C88.4284 17.768 88.1644 17.416 88.0204 16.968C87.8764 16.52 87.8044 15.92 87.8044 15.168C87.8044 14.128 87.9884 13.352 88.3564 12.84C88.7404 12.312 89.2604 11.968 89.9164 11.808C90.5884 11.648 91.4844 11.568 92.6044 11.568C93.2284 11.568 93.9004 11.6 94.6204 11.664C95.3404 11.728 95.9484 11.808 96.4444 11.904V13.632C95.1964 13.44 93.9084 13.344 92.5804 13.344C91.8444 13.344 91.2844 13.384 90.9004 13.464C90.5164 13.528 90.2204 13.688 90.0124 13.944C89.8044 14.184 89.7004 14.568 89.7004 15.096C89.7004 15.56 89.7404 15.896 89.8204 16.104C89.9004 16.312 90.0364 16.456 90.2284 16.536C90.4204 16.616 90.7404 16.68 91.1884 16.728L94.5004 17.112C95.2044 17.192 95.7324 17.328 96.0844 17.52C96.4524 17.696 96.7164 18.016 96.8764 18.48C97.0524 18.944 97.1404 19.632 97.1404 20.544C97.1404 21.552 96.9724 22.32 96.6364 22.848C96.3164 23.376 95.8364 23.736 95.1964 23.928C94.5724 24.104 93.7164 24.192 92.6284 24.192Z" fill="white"/>
<path d="M108.829 17.112C108.829 15.976 108.757 15.168 108.613 14.688C108.469 14.192 108.197 13.864 107.797 13.704C107.397 13.544 106.725 13.464 105.781 13.464C104.773 13.464 104.029 13.624 103.549 13.944C103.085 14.264 102.789 14.704 102.661 15.264C102.549 15.824 102.493 16.632 102.493 17.688V24H100.549V6.168H102.493V13.368H102.613C102.869 12.792 103.301 12.352 103.909 12.048C104.533 11.744 105.421 11.592 106.573 11.592C107.757 11.592 108.645 11.76 109.237 12.096C109.845 12.416 110.253 12.912 110.461 13.584C110.669 14.24 110.773 15.16 110.773 16.344V24H108.829V17.112Z" fill="white"/>
<mask id="mask0" mask-type="alpha" maskUnits="userSpaceOnUse" x="57" y="0" width="15" height="31">
<path d="M57 30.9608V0.0129514C57 0.0129514 72 -1.03611 72 15.7491C72 32.5344 57 30.9608 57 30.9608Z" fill="#C4C4C4"/>
</mask>
<g mask="url(#mask0)">
<path d="M57.5 0.512329C49.2289 0.512329 42.5 7.24119 42.5 15.5123C42.5 23.7835 49.2289 30.5123 57.5 30.5123C65.7711 30.5123 72.5 23.7835 72.5 15.5123C72.5 7.24119 65.7711 0.512329 57.5 0.512329ZM49.3516 16.8064C48.2095 16.8064 47.2802 15.8778 47.2802 14.7337C47.2802 13.5916 48.2095 12.663 49.3516 12.663C50.4936 12.663 51.423 13.5916 51.423 14.7337C51.423 15.8778 50.4943 16.8064 49.3516 16.8064ZM56.2768 26.7821C54.7332 26.7821 53.4773 25.5262 53.4773 23.9832C53.4773 22.4403 54.7332 21.1844 56.2768 21.1844C57.8205 21.1844 59.0764 22.4416 59.0764 23.9832C59.077 25.5269 57.8205 26.7821 56.2768 26.7821ZM59.077 12.5791C57.4789 12.5791 56.1793 11.2796 56.1793 9.68278C56.1793 8.08392 57.4789 6.78574 59.077 6.78574C60.6739 6.78574 61.9734 8.08392 61.9734 9.68278C61.9734 11.2789 60.6732 12.5791 59.077 12.5791ZM65.9164 17.7296C64.5398 17.7296 63.4195 16.6094 63.4195 15.2341C63.4195 13.8569 64.5418 12.7373 65.9164 12.7373C67.2936 12.7373 68.4125 13.8582 68.4125 15.2341C68.4125 16.6101 67.2916 17.7296 65.9164 17.7296Z" fill="white"/>
</g>
</svg>
