<svg width="111" height="31" viewBox="0 0 111 31" fill="none" xmlns="http://www.w3.org/2000/svg">
<path d="M14.952 24V11.016H14.856L9.192 24H7.68L2.04 11.016H1.944V24H0V7.488H2.784L8.424 20.328H8.544L14.184 7.488H16.968V24H14.952Z" fill="#2D3643"/>
<path d="M24.7254 24.192C23.3174 24.192 22.2934 23.936 21.6534 23.424C21.0134 22.896 20.6934 21.968 20.6934 20.64C20.6934 19.696 20.8054 18.96 21.0294 18.432C21.2534 17.904 21.6294 17.52 22.1574 17.28C22.7014 17.04 23.4614 16.92 24.4374 16.92C24.9014 16.92 26.4294 16.96 29.0214 17.04V16.32C29.0214 15.36 28.9254 14.68 28.7334 14.28C28.5574 13.88 28.2214 13.624 27.7254 13.512C27.2454 13.4 26.4214 13.344 25.2534 13.344C24.7414 13.344 24.0934 13.376 23.3094 13.44C22.5414 13.488 21.9414 13.544 21.5094 13.608V11.904C22.7734 11.68 24.2534 11.568 25.9494 11.568C27.3894 11.568 28.4614 11.72 29.1654 12.024C29.8854 12.312 30.3654 12.792 30.6054 13.464C30.8454 14.12 30.9654 15.08 30.9654 16.344V24H29.2134L29.1174 22.296H28.9734C28.6374 23.064 28.0934 23.576 27.3414 23.832C26.6054 24.072 25.7334 24.192 24.7254 24.192ZM25.4694 22.44C26.2694 22.44 26.9174 22.368 27.4134 22.224C27.9254 22.08 28.2934 21.8 28.5174 21.384C28.8534 20.808 29.0214 20.008 29.0214 18.984V18.432H24.9414C24.2694 18.432 23.7734 18.48 23.4534 18.576C23.1494 18.672 22.9334 18.864 22.8054 19.152C22.6774 19.424 22.6134 19.856 22.6134 20.448C22.6134 21.024 22.6854 21.448 22.8294 21.72C22.9734 21.992 23.2374 22.184 23.6214 22.296C24.0214 22.392 24.6374 22.44 25.4694 22.44Z" fill="#2D3643"/>
<path d="M35.1489 11.76H36.8769L36.9729 14.088H37.1169C37.4049 13.128 37.8849 12.472 38.5569 12.12C39.2289 11.752 40.1089 11.568 41.1969 11.568V13.656C40.0929 13.656 39.2449 13.824 38.6529 14.16C38.0609 14.496 37.6529 15.016 37.4289 15.72C37.2049 16.408 37.0929 17.344 37.0929 18.528V24H35.1489V11.76Z" fill="#2D3643"/>
<path d="M48.0174 24.192C47.3614 24.192 46.6174 24.16 45.7854 24.096C44.9534 24.032 44.2174 23.96 43.5774 23.88V22.152C45.1614 22.328 46.6094 22.416 47.9214 22.416C48.7374 22.416 49.3374 22.36 49.7214 22.248C50.1054 22.136 50.3534 21.96 50.4654 21.72C50.5934 21.464 50.6574 21.088 50.6574 20.592C50.6574 20.096 50.6094 19.744 50.5134 19.536C50.4334 19.312 50.2974 19.16 50.1054 19.08C49.9134 19 49.5774 18.936 49.0974 18.888L45.9054 18.528C45.1694 18.448 44.6014 18.28 44.2014 18.024C43.8174 17.768 43.5534 17.416 43.4094 16.968C43.2654 16.52 43.1934 15.92 43.1934 15.168C43.1934 14.128 43.3774 13.352 43.7454 12.84C44.1294 12.312 44.6494 11.968 45.3054 11.808C45.9774 11.648 46.8734 11.568 47.9934 11.568C48.6174 11.568 49.2894 11.6 50.0094 11.664C50.7294 11.728 51.3374 11.808 51.8334 11.904V13.632C50.5854 13.44 49.2974 13.344 47.9694 13.344C47.2334 13.344 46.6734 13.384 46.2894 13.464C45.9054 13.528 45.6094 13.688 45.4014 13.944C45.1934 14.184 45.0894 14.568 45.0894 15.096C45.0894 15.56 45.1294 15.896 45.2094 16.104C45.2894 16.312 45.4254 16.456 45.6174 16.536C45.8094 16.616 46.1294 16.68 46.5774 16.728L49.8894 17.112C50.5934 17.192 51.1214 17.328 51.4734 17.52C51.8414 17.696 52.1054 18.016 52.2654 18.48C52.4414 18.944 52.5294 19.632 52.5294 20.544C52.5294 21.552 52.3614 22.32 52.0254 22.848C51.7054 23.376 51.2254 23.736 50.5854 23.928C49.9614 24.104 49.1054 24.192 48.0174 24.192Z" fill="#2D3643"/>
<path d="M77.7489 24.192C76.3409 24.192 75.3169 23.936 74.6769 23.424C74.0369 22.896 73.7169 21.968 73.7169 20.64C73.7169 19.696 73.8289 18.96 74.0529 18.432C74.2769 17.904 74.6529 17.52 75.1809 17.28C75.7249 17.04 76.4849 16.92 77.4609 16.92C77.9249 16.92 79.4529 16.96 82.0449 17.04V16.32C82.0449 15.36 81.9489 14.68 81.7569 14.28C81.5809 13.88 81.2449 13.624 80.7489 13.512C80.2689 13.4 79.4449 13.344 78.2769 13.344C77.7649 13.344 77.1169 13.376 76.3329 13.44C75.5649 13.488 74.9649 13.544 74.5329 13.608V11.904C75.7969 11.68 77.2769 11.568 78.9729 11.568C80.4129 11.568 81.4849 11.72 82.1889 12.024C82.9089 12.312 83.3889 12.792 83.6289 13.464C83.8689 14.12 83.9889 15.08 83.9889 16.344V24H82.2369L82.1409 22.296H81.9969C81.6609 23.064 81.1169 23.576 80.3649 23.832C79.6289 24.072 78.7569 24.192 77.7489 24.192ZM78.4929 22.44C79.2929 22.44 79.9409 22.368 80.4369 22.224C80.9489 22.08 81.3169 21.8 81.5409 21.384C81.8769 20.808 82.0449 20.008 82.0449 18.984V18.432H77.9649C77.2929 18.432 76.7969 18.48 76.4769 18.576C76.1729 18.672 75.9569 18.864 75.8289 19.152C75.7009 19.424 75.6369 19.856 75.6369 20.448C75.6369 21.024 75.7089 21.448 75.8529 21.72C75.9969 21.992 76.2609 22.184 76.6449 22.296C77.0449 22.392 77.6609 22.44 78.4929 22.44Z" fill="#2D3643"/>
<path d="M92.2284 24.192C91.5724 24.192 90.8284 24.16 89.9964 24.096C89.1644 24.032 88.4284 23.96 87.7884 23.88V22.152C89.3724 22.328 90.8204 22.416 92.1324 22.416C92.9484 22.416 93.5484 22.36 93.9324 22.248C94.3164 22.136 94.5644 21.96 94.6764 21.72C94.8044 21.464 94.8684 21.088 94.8684 20.592C94.8684 20.096 94.8204 19.744 94.7244 19.536C94.6444 19.312 94.5084 19.16 94.3164 19.08C94.1244 19 93.7884 18.936 93.3084 18.888L90.1164 18.528C89.3804 18.448 88.8124 18.28 88.4124 18.024C88.0284 17.768 87.7644 17.416 87.6204 16.968C87.4764 16.52 87.4044 15.92 87.4044 15.168C87.4044 14.128 87.5884 13.352 87.9564 12.84C88.3404 12.312 88.8604 11.968 89.5164 11.808C90.1884 11.648 91.0844 11.568 92.2044 11.568C92.8284 11.568 93.5004 11.6 94.2204 11.664C94.9404 11.728 95.5484 11.808 96.0444 11.904V13.632C94.7964 13.44 93.5084 13.344 92.1804 13.344C91.4444 13.344 90.8844 13.384 90.5004 13.464C90.1164 13.528 89.8204 13.688 89.6124 13.944C89.4044 14.184 89.3004 14.568 89.3004 15.096C89.3004 15.56 89.3404 15.896 89.4204 16.104C89.5004 16.312 89.6364 16.456 89.8284 16.536C90.0204 16.616 90.3404 16.68 90.7884 16.728L94.1004 17.112C94.8044 17.192 95.3324 17.328 95.6844 17.52C96.0524 17.696 96.3164 18.016 96.4764 18.48C96.6524 18.944 96.7404 19.632 96.7404 20.544C96.7404 21.552 96.5724 22.32 96.2364 22.848C95.9164 23.376 95.4364 23.736 94.7964 23.928C94.1724 24.104 93.3164 24.192 92.2284 24.192Z" fill="#2D3643"/>
<path d="M108.429 17.112C108.429 15.976 108.357 15.168 108.213 14.688C108.069 14.192 107.797 13.864 107.397 13.704C106.997 13.544 106.325 13.464 105.381 13.464C104.373 13.464 103.629 13.624 103.149 13.944C102.685 14.264 102.389 14.704 102.261 15.264C102.149 15.824 102.093 16.632 102.093 17.688V24H100.149V6.168H102.093V13.368H102.213C102.469 12.792 102.901 12.352 103.509 12.048C104.133 11.744 105.021 11.592 106.173 11.592C107.357 11.592 108.245 11.76 108.837 12.096C109.445 12.416 109.853 12.912 110.061 13.584C110.269 14.24 110.373 15.16 110.373 16.344V24H108.429V17.112Z" fill="#2D3643"/>
<mask id="mask0" mask-type="alpha" maskUnits="userSpaceOnUse" x="56" y="0" width="16" height="31">
<path d="M56.6001 30.9608V0.0129514C56.6001 0.0129514 71.6001 -1.03611 71.6001 15.7491C71.6001 32.5344 56.6001 30.9608 56.6001 30.9608Z" fill="#C4C4C4"/>
</mask>
<g mask="url(#mask0)">
<path d="M57.1001 0.512329C48.829 0.512329 42.1001 7.24119 42.1001 15.5123C42.1001 23.7835 48.829 30.5123 57.1001 30.5123C65.3712 30.5123 72.1001 23.7835 72.1001 15.5123C72.1001 7.24119 65.3712 0.512329 57.1001 0.512329ZM48.9517 16.8064C47.8096 16.8064 46.8803 15.8778 46.8803 14.7337C46.8803 13.5916 47.8096 12.663 48.9517 12.663C50.0937 12.663 51.0231 13.5916 51.0231 14.7337C51.0231 15.8778 50.0944 16.8064 48.9517 16.8064ZM55.8769 26.7821C54.3333 26.7821 53.0774 25.5262 53.0774 23.9832C53.0774 22.4403 54.3333 21.1844 55.8769 21.1844C57.4206 21.1844 58.6765 22.4416 58.6765 23.9832C58.6771 25.5269 57.4206 26.7821 55.8769 26.7821ZM58.6771 12.5791C57.079 12.5791 55.7794 11.2796 55.7794 9.68278C55.7794 8.08392 57.079 6.78574 58.6771 6.78574C60.274 6.78574 61.5735 8.08392 61.5735 9.68278C61.5735 11.2789 60.2733 12.5791 58.6771 12.5791ZM65.5165 17.7296C64.1399 17.7296 63.0196 16.6094 63.0196 15.2341C63.0196 13.8569 64.1419 12.7373 65.5165 12.7373C66.8937 12.7373 68.0126 13.8582 68.0126 15.2341C68.0126 16.6101 66.8917 17.7296 65.5165 17.7296Z" fill="#2D3643"/>
</g>
</svg>
